<svg width="32" height="32" viewBox="0 0 32 32" fill="none" xmlns="http://www.w3.org/2000/svg">
<rect width="32" height="32" fill="white"/>
<path d="M20.8982 12.332C20.4771 11.7089 19.5142 11.2976 18.4204 11.2657L20.3541 10.037C20.4375 9.98399 20.4815 9.89705 20.4694 9.80887C20.4574 9.72073 20.3911 9.64474 20.2957 9.60955C19.4127 9.2841 18.1875 9.4898 17.1743 10.1336C17.0904 10.1869 17.0097 10.2424 16.9319 10.2996C16.851 9.36077 16.5848 8.5447 16.203 8.10132C16.1481 8.03762 16.0611 8 15.9684 8C15.8758 8 15.7887 8.03762 15.7338 8.10132C15.352 8.54466 15.0859 9.36062 15.005 10.2994C14.9272 10.2423 14.8467 10.1868 14.7629 10.1336C13.7497 9.48982 12.5245 9.28407 11.6415 9.60955C11.5461 9.64474 11.4798 9.72073 11.4678 9.80887C11.4558 9.89703 11.4997 9.98397 11.5831 10.037L13.5168 11.2657C12.423 11.2976 11.4601 11.7089 11.039 12.332C10.987 12.4089 10.987 12.5036 11.0391 12.5805C11.0911 12.6573 11.1872 12.7047 11.2911 12.7047H13.3995C13.2616 12.7778 13.1262 12.8586 12.9949 12.9472C12.004 13.6159 11.4541 14.5728 11.594 15.385C11.6091 15.4728 11.6779 15.5471 11.7746 15.5798C11.8093 15.5916 11.8458 15.5974 11.882 15.5974C11.9465 15.5974 12.0103 15.5791 12.0626 15.5438L15.0396 13.5347L14.5166 16.192C14.4899 16.3273 14.5969 16.4555 14.7555 16.4782C14.7718 16.4805 14.788 16.4817 14.804 16.4817C14.9436 16.4817 15.0669 16.3957 15.0908 16.2743L15.7205 13.0751L15.9686 12.9077L16.2162 13.0747L16.8461 16.2743C16.87 16.3957 16.9932 16.4817 17.1328 16.4817C17.1488 16.4817 17.1651 16.4805 17.1814 16.4782C17.34 16.4555 17.4469 16.3273 17.4203 16.192L16.8971 13.5343L19.8747 15.5438C19.9269 15.5791 19.9907 15.5974 20.0553 15.5974C20.0915 15.5974 20.1279 15.5916 20.1627 15.5798C20.2593 15.5471 20.3281 15.4728 20.3433 15.385C20.4831 14.5728 19.9332 13.6159 18.9423 12.9472C18.811 12.8586 18.6756 12.7778 18.5377 12.7047H20.6461C20.75 12.7047 20.8462 12.6573 20.8981 12.5805C20.9502 12.5036 20.9502 12.4089 20.8982 12.332V12.332ZM17.522 10.5322C18.1517 10.1321 18.8865 9.92695 19.5036 9.95781L16.3089 11.9878C16.4512 11.4745 16.8923 10.9324 17.522 10.5322V10.5322ZM15.9684 8.76567C16.209 9.26177 16.3618 10.0032 16.3746 10.7947C16.213 10.97 16.0766 11.1535 15.9686 11.3408C15.8605 11.1534 15.724 10.9697 15.5622 10.7943C15.5752 10.003 15.7279 9.26167 15.9684 8.76567ZM14.4153 10.5322C15.045 10.9324 15.486 11.4745 15.6283 11.9878L12.4336 9.95783C13.0508 9.9272 13.7855 10.1321 14.4153 10.5322V10.5322ZM13.6541 11.7604C13.8458 11.7604 14.1603 11.7886 14.3905 11.8208L14.9993 12.2077H11.9371C12.3596 11.9303 12.9855 11.7604 13.6541 11.7604ZM13.3561 13.337C13.9518 12.935 14.6522 12.7129 15.2566 12.7129C15.2769 12.7129 15.2972 12.7131 15.3173 12.7137L12.1931 14.8221C12.3179 14.3055 12.7402 13.7526 13.3561 13.337V13.337ZM19.7441 14.8221L16.6199 12.7137C17.2378 12.6983 17.9654 12.9214 18.5812 13.337C19.197 13.7526 19.6193 14.3055 19.7441 14.8221ZM16.9379 12.2077C16.9379 12.2077 17.5491 11.8308 17.5652 11.8265C17.7908 11.7663 18.0375 11.7604 18.2831 11.7604C18.9517 11.7604 19.5776 11.9303 20.0001 12.2077H16.9379Z" fill="#7A7E9D"/>
<path d="M1.92117 21.735H2.31117V19.45H1.92117V19.185H3.11117V19.45H2.72117V21.735H3.89117V20.87H4.22117V22H1.92117V21.735ZM5.73812 22.06C5.52812 22.06 5.34312 22.0167 5.18312 21.93C5.02312 21.8433 4.89812 21.7217 4.80812 21.565C4.72146 21.405 4.67812 21.2217 4.67812 21.015C4.67812 20.8083 4.72146 20.6267 4.80812 20.47C4.89812 20.3133 5.02312 20.1933 5.18312 20.11C5.34312 20.0233 5.52812 19.98 5.73812 19.98C5.94812 19.98 6.13312 20.0233 6.29312 20.11C6.45646 20.1933 6.58312 20.3133 6.67312 20.47C6.76312 20.6267 6.80812 20.8067 6.80812 21.01C6.80812 21.2167 6.76312 21.4 6.67312 21.56C6.58312 21.72 6.45646 21.8433 6.29312 21.93C6.13312 22.0167 5.94812 22.06 5.73812 22.06ZM5.73812 21.77C5.94479 21.77 6.11146 21.7017 6.23812 21.565C6.36479 21.425 6.42812 21.24 6.42812 21.01C6.42812 20.7867 6.36479 20.6083 6.23812 20.475C6.11146 20.3383 5.94479 20.27 5.73812 20.27C5.53146 20.27 5.36646 20.3383 5.24312 20.475C5.11979 20.6117 5.05812 20.7917 5.05812 21.015C5.05812 21.2417 5.11979 21.425 5.24312 21.565C5.36979 21.7017 5.53479 21.77 5.73812 21.77ZM7.50105 20.3H7.16605V20.035H8.21605V20.3H7.89605L8.44605 21.62L8.99105 20.3H8.67605V20.035H9.66605V20.3H9.35105L8.58605 22H8.25105L7.50105 20.3ZM12.0294 21.095H10.4094C10.4327 21.305 10.5077 21.4717 10.6344 21.595C10.7611 21.715 10.9227 21.775 11.1194 21.775C11.3927 21.775 11.6411 21.67 11.8644 21.46L11.9944 21.685C11.8977 21.7983 11.7761 21.89 11.6294 21.96C11.4827 22.0267 11.3177 22.06 11.1344 22.06C10.9277 22.06 10.7394 22.0167 10.5694 21.93C10.3994 21.8433 10.2661 21.7217 10.1694 21.565C10.0727 21.405 10.0244 21.2233 10.0244 21.02C10.0244 20.8133 10.0694 20.6317 10.1594 20.475C10.2527 20.315 10.3777 20.1933 10.5344 20.11C10.6944 20.0233 10.8711 19.98 11.0644 19.98C11.3644 19.98 11.5994 20.0717 11.7694 20.255C11.9427 20.4383 12.0294 20.6867 12.0294 21V21.095ZM11.6644 20.865C11.6644 20.675 11.6077 20.525 11.4944 20.415C11.3844 20.305 11.2411 20.25 11.0644 20.25C10.8911 20.25 10.7444 20.305 10.6244 20.415C10.5044 20.525 10.4327 20.675 10.4094 20.865H11.6644ZM12.5391 21.735H12.9041V19.395H12.5491V19.135H13.2741V21.735H13.5941V22H12.5391V21.735ZM14.4079 22.495H14.6329C14.7263 22.495 14.7979 22.4883 14.8479 22.475C14.8979 22.4617 14.9413 22.4317 14.9779 22.385C15.0179 22.3383 15.0546 22.265 15.0879 22.165L15.1929 21.875H15.0379L14.3079 20.3H13.9429V20.035H14.9729V20.3H14.6829L15.2729 21.635L15.7979 20.3H15.4579V20.035H16.4829V20.3H16.1629L15.4329 22.115C15.3596 22.305 15.2979 22.4417 15.2479 22.525C15.2013 22.6117 15.1329 22.6783 15.0429 22.725C14.9529 22.7717 14.8263 22.795 14.6629 22.795H14.4079V22.495ZM16.9457 21.735H17.3357V19.45H16.9457V19.185H18.1407V19.45H17.7457V21.735H18.1407V22H16.9457V21.735ZM19.885 20.86C20.0384 20.8967 20.16 20.9367 20.25 20.98C20.3434 21.02 20.4184 21.08 20.475 21.16C20.5317 21.24 20.56 21.3467 20.56 21.48C20.56 21.6667 20.4867 21.8083 20.34 21.905C20.1934 22.0017 20.0167 22.05 19.81 22.05C19.6834 22.05 19.5634 22.03 19.45 21.99C19.3367 21.95 19.2467 21.8967 19.18 21.83V22H18.89V21.32H19.15L19.17 21.535C19.2267 21.6183 19.3084 21.6833 19.415 21.73C19.525 21.7733 19.64 21.795 19.76 21.795C19.89 21.795 19.9967 21.77 20.08 21.72C20.1634 21.6667 20.205 21.5967 20.205 21.51C20.205 21.41 20.1734 21.3383 20.11 21.295C20.0467 21.2517 19.9284 21.2117 19.755 21.175L19.48 21.115C19.2767 21.065 19.1267 21 19.03 20.92C18.9334 20.8367 18.885 20.7083 18.885 20.535C18.885 20.365 18.9517 20.2317 19.085 20.135C19.2217 20.035 19.3967 19.985 19.61 19.985C19.7134 19.985 19.8184 20.0017 19.925 20.035C20.035 20.0683 20.1217 20.115 20.185 20.175V20.025H20.48V20.7H20.22L20.185 20.455C20.135 20.395 20.06 20.3467 19.96 20.31C19.8634 20.27 19.7667 20.25 19.67 20.25C19.5534 20.25 19.455 20.2733 19.375 20.32C19.295 20.3667 19.255 20.435 19.255 20.525C19.255 20.5983 19.2834 20.655 19.34 20.695C19.3967 20.735 19.4934 20.7717 19.63 20.805L19.885 20.86ZM20.24 20.555L20.235 20.545L20.24 20.555ZM19.11 21.41C19.11 21.4167 19.1117 21.4217 19.115 21.425L19.11 21.41ZM21.0832 21.735H21.4482V19.395H21.0932V19.135H21.8182V21.735H22.1382V22H21.0832V21.735ZM24.6521 21.735V22H24.0171L23.9971 21.825C23.8904 21.905 23.7837 21.9633 23.6771 22C23.5704 22.0367 23.4504 22.055 23.3171 22.055C23.1171 22.055 22.9537 22 22.8271 21.89C22.7037 21.7767 22.6421 21.6367 22.6421 21.47C22.6421 21.2567 22.7137 21.1017 22.8571 21.005C23.0037 20.905 23.1954 20.855 23.4321 20.855C23.6021 20.855 23.7837 20.8767 23.9771 20.92V20.715C23.9771 20.565 23.9354 20.4517 23.8521 20.375C23.7721 20.2983 23.6587 20.26 23.5121 20.26C23.4154 20.26 23.3037 20.2767 23.1771 20.31C23.0537 20.34 22.9404 20.3833 22.8371 20.44L22.7271 20.2C22.8371 20.13 22.9637 20.0767 23.1071 20.04C23.2537 20.0033 23.3904 19.985 23.5171 19.985C23.7737 19.985 23.9754 20.0483 24.1221 20.175C24.2687 20.2983 24.3421 20.4667 24.3421 20.68V21.735H24.6521ZM22.9921 21.45C22.9921 21.5533 23.0254 21.6383 23.0921 21.705C23.1621 21.7683 23.2554 21.8 23.3721 21.8C23.5687 21.8 23.7704 21.7283 23.9771 21.585V21.135C23.8004 21.095 23.6271 21.075 23.4571 21.075C23.3237 21.075 23.2121 21.105 23.1221 21.165C23.0354 21.2217 22.9921 21.3167 22.9921 21.45ZM27.5023 21.735V22H26.4473V21.735H26.7723V20.71C26.7723 20.5733 26.739 20.4667 26.6723 20.39C26.6057 20.3133 26.514 20.275 26.3973 20.275C26.3007 20.275 26.2023 20.2933 26.1023 20.33C26.0057 20.3633 25.899 20.415 25.7823 20.485V21.735H26.1373V22H25.0373V21.735H25.4173V20.3H25.0373V20.035H25.7823V20.23C26.0423 20.0667 26.279 19.985 26.4923 19.985C26.679 19.985 26.8323 20.0433 26.9523 20.16C27.0757 20.2733 27.1373 20.4333 27.1373 20.64V21.735H27.5023ZM30.1604 21.735V22H29.4804V21.86C29.297 21.99 29.0887 22.055 28.8554 22.055C28.672 22.055 28.5037 22.0133 28.3504 21.93C28.197 21.8467 28.0754 21.7267 27.9854 21.57C27.8954 21.41 27.8504 21.225 27.8504 21.015C27.8504 20.8017 27.8937 20.6167 27.9804 20.46C28.067 20.3033 28.1837 20.185 28.3304 20.105C28.477 20.025 28.6387 19.985 28.8154 19.985C28.9287 19.985 29.0437 20.0033 29.1604 20.04C29.277 20.0733 29.3837 20.1233 29.4804 20.19V19.395H29.1304V19.135H29.8504V21.735H30.1604ZM28.2354 21.045C28.2354 21.2717 28.3004 21.45 28.4304 21.58C28.5637 21.71 28.732 21.775 28.9354 21.775C29.1254 21.775 29.307 21.715 29.4804 21.595V20.455C29.387 20.395 29.2887 20.3483 29.1854 20.315C29.082 20.2817 28.9837 20.265 28.8904 20.265C28.6937 20.265 28.5354 20.3333 28.4154 20.47C28.2954 20.6067 28.2354 20.7983 28.2354 21.045Z" fill="#7A7E9D"/>
</svg>
