<svg width="191" height="32" viewBox="0 0 191 32" fill="none" xmlns="http://www.w3.org/2000/svg">
<path d="M30.6586 21.516H32.8426V8.72H30.6586V7.236H37.3226V8.72H35.1386V21.516H41.6906V16.672H43.5386V23H30.6586V21.516ZM52.0335 23.336C50.8575 23.336 49.8215 23.0933 48.9255 22.608C48.0295 22.1227 47.3295 21.4413 46.8255 20.564C46.3402 19.668 46.0975 18.6413 46.0975 17.484C46.0975 16.3267 46.3402 15.3093 46.8255 14.432C47.3295 13.5547 48.0295 12.8827 48.9255 12.416C49.8215 11.9307 50.8575 11.688 52.0335 11.688C53.2095 11.688 54.2455 11.9307 55.1415 12.416C56.0562 12.8827 56.7655 13.5547 57.2695 14.432C57.7735 15.3093 58.0255 16.3173 58.0255 17.456C58.0255 18.6133 57.7735 19.64 57.2695 20.536C56.7655 21.432 56.0562 22.1227 55.1415 22.608C54.2455 23.0933 53.2095 23.336 52.0335 23.336ZM52.0335 21.712C53.1908 21.712 54.1242 21.3293 54.8335 20.564C55.5428 19.78 55.8975 18.744 55.8975 17.456C55.8975 16.2053 55.5428 15.2067 54.8335 14.46C54.1242 13.6947 53.1908 13.312 52.0335 13.312C50.8762 13.312 49.9522 13.6947 49.2615 14.46C48.5708 15.2253 48.2255 16.2333 48.2255 17.484C48.2255 18.7533 48.5708 19.78 49.2615 20.564C49.9708 21.3293 50.8948 21.712 52.0335 21.712ZM61.9059 13.48H60.0299V11.996H65.9099V13.48H64.1179L67.1979 20.872L70.2499 13.48H68.4859V11.996H74.0299V13.48H72.2659L67.9819 23H66.1059L61.9059 13.48ZM87.2647 17.932H78.1927C78.3234 19.108 78.7434 20.0413 79.4527 20.732C80.162 21.404 81.0674 21.74 82.1687 21.74C83.6994 21.74 85.09 21.152 86.3407 19.976L87.0687 21.236C86.5274 21.8707 85.846 22.384 85.0247 22.776C84.2034 23.1493 83.2794 23.336 82.2527 23.336C81.0954 23.336 80.0407 23.0933 79.0887 22.608C78.1367 22.1227 77.39 21.4413 76.8487 20.564C76.3074 19.668 76.0367 18.6507 76.0367 17.512C76.0367 16.3547 76.2887 15.3373 76.7927 14.46C77.3154 13.564 78.0154 12.8827 78.8927 12.416C79.7887 11.9307 80.778 11.688 81.8607 11.688C83.5407 11.688 84.8567 12.2013 85.8087 13.228C86.7794 14.2547 87.2647 15.6453 87.2647 17.4V17.932ZM85.2207 16.644C85.2207 15.58 84.9034 14.74 84.2687 14.124C83.6527 13.508 82.85 13.2 81.8607 13.2C80.89 13.2 80.0687 13.508 79.3967 14.124C78.7247 14.74 78.3234 15.58 78.1927 16.644H85.2207ZM90.119 21.516H92.163V8.412H90.175V6.956H94.235V21.516H96.027V23H90.119V21.516ZM100.584 25.772H101.844C102.367 25.772 102.768 25.7347 103.048 25.66C103.328 25.5853 103.571 25.4173 103.776 25.156C104 24.8947 104.206 24.484 104.392 23.924L104.98 22.3H104.112L100.024 13.48H97.9804V11.996H103.748V13.48H102.124L105.428 20.956L108.368 13.48H106.464V11.996H112.204V13.48H110.412L106.324 23.644C105.914 24.708 105.568 25.4733 105.288 25.94C105.027 26.4253 104.644 26.7987 104.14 27.06C103.636 27.3213 102.927 27.452 102.012 27.452H100.584V25.772ZM114.796 21.516H116.98V8.72H114.796V7.236H121.488V8.72H119.276V21.516H121.488V23H114.796V21.516ZM131.256 16.616C132.115 16.8213 132.796 17.0453 133.3 17.288C133.823 17.512 134.243 17.848 134.56 18.296C134.878 18.744 135.036 19.3413 135.036 20.088C135.036 21.1333 134.626 21.9267 133.804 22.468C132.983 23.0093 131.994 23.28 130.836 23.28C130.127 23.28 129.455 23.168 128.82 22.944C128.186 22.72 127.682 22.4213 127.308 22.048V23H125.684V19.192H127.14L127.252 20.396C127.57 20.8627 128.027 21.2267 128.624 21.488C129.24 21.7307 129.884 21.852 130.556 21.852C131.284 21.852 131.882 21.712 132.348 21.432C132.815 21.1333 133.048 20.7413 133.048 20.256C133.048 19.696 132.871 19.2947 132.516 19.052C132.162 18.8093 131.499 18.5853 130.528 18.38L128.988 18.044C127.85 17.764 127.01 17.4 126.468 16.952C125.927 16.4853 125.656 15.7667 125.656 14.796C125.656 13.844 126.03 13.0973 126.776 12.556C127.542 11.996 128.522 11.716 129.716 11.716C130.295 11.716 130.883 11.8093 131.48 11.996C132.096 12.1827 132.582 12.444 132.936 12.78V11.94H134.588V15.72H133.132L132.936 14.348C132.656 14.012 132.236 13.7413 131.676 13.536C131.135 13.312 130.594 13.2 130.052 13.2C129.399 13.2 128.848 13.3307 128.4 13.592C127.952 13.8533 127.728 14.236 127.728 14.74C127.728 15.1507 127.887 15.468 128.204 15.692C128.522 15.916 129.063 16.1213 129.828 16.308L131.256 16.616ZM133.244 14.908L133.216 14.852L133.244 14.908ZM126.916 19.696C126.916 19.7333 126.926 19.7613 126.944 19.78L126.916 19.696ZM137.966 21.516H140.01V8.412H138.022V6.956H142.082V21.516H143.874V23H137.966V21.516ZM157.952 21.516V23H154.396L154.284 22.02C153.686 22.468 153.089 22.7947 152.492 23C151.894 23.2053 151.222 23.308 150.476 23.308C149.356 23.308 148.441 23 147.732 22.384C147.041 21.7493 146.696 20.9653 146.696 20.032C146.696 18.8373 147.097 17.9693 147.9 17.428C148.721 16.868 149.794 16.588 151.12 16.588C152.072 16.588 153.089 16.7093 154.172 16.952V15.804C154.172 14.964 153.938 14.3293 153.472 13.9C153.024 13.4707 152.389 13.256 151.568 13.256C151.026 13.256 150.401 13.3493 149.692 13.536C149.001 13.704 148.366 13.9467 147.788 14.264L147.172 12.92C147.788 12.528 148.497 12.2293 149.3 12.024C150.121 11.8187 150.886 11.716 151.596 11.716C153.033 11.716 154.162 12.0707 154.984 12.78C155.805 13.4707 156.216 14.4133 156.216 15.608V21.516H157.952ZM148.656 19.92C148.656 20.4987 148.842 20.9747 149.216 21.348C149.608 21.7027 150.13 21.88 150.784 21.88C151.885 21.88 153.014 21.4787 154.172 20.676V18.156C153.182 17.932 152.212 17.82 151.26 17.82C150.513 17.82 149.888 17.988 149.384 18.324C148.898 18.6413 148.656 19.1733 148.656 19.92ZM173.913 21.516V23H168.005V21.516H169.825V15.776C169.825 15.0107 169.638 14.4133 169.265 13.984C168.892 13.5547 168.378 13.34 167.725 13.34C167.184 13.34 166.633 13.4427 166.073 13.648C165.532 13.8347 164.934 14.124 164.281 14.516V21.516H166.269V23H160.109V21.516H162.237V13.48H160.109V11.996H164.281V13.088C165.737 12.1733 167.062 11.716 168.257 11.716C169.302 11.716 170.161 12.0427 170.833 12.696C171.524 13.3307 171.869 14.2267 171.869 15.384V21.516H173.913ZM188.798 21.516V23H184.99V22.216C183.963 22.944 182.797 23.308 181.49 23.308C180.463 23.308 179.521 23.0747 178.662 22.608C177.803 22.1413 177.122 21.4693 176.618 20.592C176.114 19.696 175.862 18.66 175.862 17.484C175.862 16.2893 176.105 15.2533 176.59 14.376C177.075 13.4987 177.729 12.836 178.55 12.388C179.371 11.94 180.277 11.716 181.266 11.716C181.901 11.716 182.545 11.8187 183.198 12.024C183.851 12.2107 184.449 12.4907 184.99 12.864V8.412H183.03V6.956H187.062V21.516H188.798ZM178.018 17.652C178.018 18.9213 178.382 19.92 179.11 20.648C179.857 21.376 180.799 21.74 181.938 21.74C183.002 21.74 184.019 21.404 184.99 20.732V14.348C184.467 14.012 183.917 13.7507 183.338 13.564C182.759 13.3773 182.209 13.284 181.686 13.284C180.585 13.284 179.698 13.6667 179.026 14.432C178.354 15.1973 178.018 16.2707 178.018 17.652Z" fill="white"/>
<path d="M23.9059 16.258C22.8889 14.4947 20.5632 13.331 17.9215 13.2407L22.5917 9.76395C22.7931 9.61395 22.8993 9.36795 22.8702 9.11844C22.8411 8.86902 22.6812 8.654 22.4506 8.55444C20.3181 7.63354 17.359 8.21559 14.9119 10.0373C14.7092 10.1881 14.5144 10.3453 14.3265 10.5071C14.1311 7.85048 13.4883 5.54129 12.566 4.28669C12.4336 4.10645 12.2233 4 11.9996 4C11.7758 4 11.5655 4.10645 11.433 4.28669C10.5109 5.54119 9.86815 7.85006 9.67268 10.5064C9.48494 10.3448 9.29046 10.1879 9.0881 10.0373C6.64103 8.21563 3.68204 7.63345 1.54941 8.55444C1.31884 8.654 1.1589 8.86902 1.12979 9.11844C1.10073 9.36791 1.2069 9.6139 1.40832 9.76395L6.07848 13.2407C3.43684 13.3311 1.11118 14.4947 0.0940842 16.258C-0.0314473 16.4756 -0.0313535 16.7435 0.0943185 16.961C0.219944 17.1785 0.452022 17.3124 0.703132 17.3124H5.79531C5.46203 17.5195 5.13512 17.748 4.81797 17.9988C2.42495 19.891 1.09684 22.5986 1.43452 24.8968C1.47104 25.1453 1.63731 25.3554 1.87074 25.4481C1.95465 25.4814 2.04263 25.4977 2.1301 25.4977C2.28596 25.4977 2.44009 25.4459 2.56632 25.3461L9.7563 19.661L8.49311 27.1803C8.4288 27.5633 8.68708 27.9258 9.07005 27.9902C9.10952 27.9968 9.14871 28 9.18738 28C9.5245 28 9.82225 27.7568 9.87996 27.4133L11.4007 18.3607L12 17.8869L12.5979 18.3596L14.1192 27.4133C14.1769 27.7568 14.4747 28 14.8118 28C14.8505 28 14.8897 27.9968 14.9292 27.9902C15.3121 27.9258 15.5704 27.5632 15.5061 27.1803L14.2424 19.66L21.4338 25.3462C21.56 25.446 21.7141 25.4978 21.87 25.4978C21.9574 25.4978 22.0454 25.4815 22.1293 25.4481C22.3627 25.3554 22.529 25.1453 22.5656 24.8968C22.9032 22.5987 21.5751 19.891 19.182 17.9989C18.8649 17.7481 18.538 17.5195 18.2047 17.3125H23.2969C23.548 17.3125 23.7801 17.1785 23.9057 16.961C24.0314 16.7435 24.0314 16.4755 23.9059 16.258V16.258ZM15.7516 11.1653C17.2726 10.033 19.0473 9.45256 20.5377 9.53989L12.8218 15.2841C13.1656 13.8315 14.2308 12.2975 15.7516 11.1653V11.1653ZM11.9996 6.16655C12.5807 7.57035 12.9495 9.66837 12.9806 11.908C12.5902 12.4039 12.2608 12.9233 12 13.4533C11.739 12.9229 11.4094 12.4031 11.0186 11.9069C11.0498 9.66772 11.4186 7.57007 11.9996 6.16655ZM8.24842 11.1653C9.76924 12.2975 10.8344 13.8315 11.1782 15.284L3.46234 9.53994C4.95292 9.45327 6.72752 10.0331 8.24842 11.1653V11.1653ZM6.41017 14.6406C6.87306 14.6406 7.63272 14.7203 8.18852 14.8115L9.65899 15.9062H2.26337C3.28374 15.1213 4.79537 14.6406 6.41017 14.6406ZM5.69026 19.1019C7.12914 17.9641 8.82067 17.3358 10.2803 17.3358C10.3295 17.3358 10.3784 17.3365 10.427 17.3379L2.88156 23.3041C3.18292 21.8422 4.20296 20.2778 5.69026 19.1019V19.1019ZM21.1185 23.3041L13.5731 17.3379C15.0653 17.2946 16.8225 17.9258 18.3098 19.1019C19.7971 20.2778 20.8171 21.8422 21.1185 23.3041ZM14.3411 15.9062C14.3411 15.9062 15.8172 14.8398 15.856 14.8276C16.401 14.6573 16.9968 14.6406 17.5899 14.6406C19.2047 14.6406 20.7163 15.1213 21.7367 15.9062H14.3411Z" fill="white"/>
</svg>
